<svg xmlns="http://www.w3.org/2000/svg" viewBox="0 0 64 64" fill="none">
  <rect width="64" height="64" rx="14" fill="#0D1324"/>
  <path d="M32 12C21.5 12 13 20.5 13 31C13 41.5 21.5 50 32 50C42.5 50 51 41.5 51 31C51 20.5 42.5 12 32 12Z" fill="#12213A"/>
  <path d="M20 33.5C23.5 26.2 28.8 22.5 35.5 22.5C42.2 22.5 46.5 26.5 48 33.5" stroke="#00D4FF" stroke-width="3.4" stroke-linecap="round"/>
  <circle cx="26" cy="33" r="2.6" fill="#22F58A"/>
  <circle cx="38" cy="33" r="2.6" fill="#22F58A"/>
  <path d="M24 41C26.5 43.2 29.1 44.2 32 44.2C34.9 44.2 37.5 43.2 40 41" stroke="#94A3C0" stroke-width="2.6" stroke-linecap="round"/>
</svg>
